<svg id="Layer_1" data-name="Layer 1" xmlns="http://www.w3.org/2000/svg" viewBox="0 0 432 123.37"><defs><style>.cls-1{fill:#f6841f;}.cls-2{fill:#71bf44;}</style></defs><title>citrus-logo</title><path class="cls-1" d="M239,202c0-5.94,5-9.73,11.39-9.73S261.78,196,261.78,202v1c0,5.94-4.95,9.9-11.38,9.9S239,208.9,239,203Zm1.49,32.51a9.87,9.87,0,0,1,9.9-10.07,10,10,0,0,1,10.06,10.07v69a10,10,0,0,1-20,0Z" transform="translate(-144 -191.13)"/><path class="cls-1" d="M287.39,288.43V242.56h-3.3a8.58,8.58,0,1,1,0-17.16h3.3V210.55a10,10,0,0,1,20,0V225.4H323a8.58,8.58,0,1,1,0,17.16H307.36V285.3c0,7.75,4,10.89,10.72,10.89a46.74,46.74,0,0,0,4.95-.5,8.42,8.42,0,0,1,8.42,8.25,8.61,8.61,0,0,1-5.28,7.76,39.86,39.86,0,0,1-13.7,2.31C297.79,314,287.39,307.57,287.39,288.43Z" transform="translate(-144 -191.13)"/><path class="cls-1" d="M347,234.48a9.87,9.87,0,0,1,9.9-10.07,10,10,0,0,1,10.06,10.07v8.91c4.62-10.89,13.2-19.14,21.95-19.14,6.27,0,9.9,4.12,9.9,9.9a9.38,9.38,0,0,1-7.92,9.57c-14.19,2.47-23.93,13.36-23.93,34v25.74a10,10,0,0,1-10.06,9.9,9.82,9.82,0,0,1-9.9-9.9Z" transform="translate(-144 -191.13)"/><path class="cls-1" d="M490.39,303.45a10.07,10.07,0,0,1-20.13,0V299c-5.61,8.25-13.7,15.35-27.23,15.35-19.63,0-31-13.2-31-33.5V234.48a10,10,0,1,1,20,0V274.9c0,13.53,6.76,21.12,18.64,21.12,11.55,0,19.64-7.92,19.64-21.45V234.48a10,10,0,0,1,10.06-10.07,10.11,10.11,0,0,1,10.07,10.07Z" transform="translate(-144 -191.13)"/><path class="cls-1" d="M510.49,303.78a7.66,7.66,0,0,1-3.79-6.93,8,8,0,0,1,8.09-8.09,8.66,8.66,0,0,1,4.28,1.16c8.42,5.61,17.16,8.41,25.08,8.41,8.58,0,13.53-3.63,13.53-9.4v-.33c0-6.77-9.23-9.08-19.46-12.21-12.87-3.63-27.23-8.91-27.23-25.58v-.33c0-16.5,13.69-26.56,31-26.56A60,60,0,0,1,569.4,231a8.48,8.48,0,0,1,4.78,7.59,8,8,0,0,1-8.24,8.09,7.79,7.79,0,0,1-4-1c-7.1-3.63-14.36-5.94-20.46-5.94-7.76,0-12.22,3.63-12.22,8.58v.33c0,6.43,9.41,9.07,19.64,12.37,12.7,4,27.06,9.74,27.06,25.41v.33c0,18.32-14.19,27.39-32.34,27.39A59.55,59.55,0,0,1,510.49,303.78Z" transform="translate(-144 -191.13)"/><path class="cls-1" d="M144,269.46v-.33c0-24.75,19.14-45.54,45.37-45.54,13.7,0,23.1,4.45,30.53,10.89a9.46,9.46,0,0,1,3.13,6.93,9.08,9.08,0,0,1-9.24,9.07,10.16,10.16,0,0,1-5.93-2c-5.12-4.29-10.73-7.42-18.65-7.42-14.52,0-25.24,12.54-25.24,27.72v.33C164,284.64,174.69,297,190,297c7.92,0,14-3.13,19.47-7.75a8.41,8.41,0,0,1,14,6.6,7.78,7.78,0,0,1-2.81,6.27C213,309.55,203.56,314.5,189,314.5,163.14,314.5,144,294.21,144,269.46Z" transform="translate(-144 -191.13)"/><path class="cls-2" d="M188.87,227.72A35.07,35.07,0,0,1,154,194.53a3.21,3.21,0,0,1,.86-2.41,3.16,3.16,0,0,1,2.34-1h.18a35.2,35.2,0,0,1,31.68,24.75,27.61,27.61,0,0,1,24.1-17.36h.16a3,3,0,0,1,3,3.14,27.69,27.69,0,0,1-27.43,26.06h0Z" transform="translate(-144 -191.13)"/></svg>